<svg xmlns="http://www.w3.org/2000/svg" width="12.299" height="14.213" viewBox="0 0 12.299 14.213">
  <path id="Path_124" data-name="Path 124" d="M.388,1.923A8.586,8.586,0,0,1,6.08,0a8.642,8.642,0,0,1,5.688,1.917l.4.359-.322.429L10.166,4.94l0,.041a2.645,2.645,0,0,0-.022.312,4.141,4.141,0,0,1-.978,2.682,5.037,5.037,0,0,1,2.211,4.375v1.764H.788V12.349A5.043,5.043,0,0,1,3,7.974a4.139,4.139,0,0,1-.979-2.682A2.822,2.822,0,0,0,2,4.981l0-.041L.318,2.705,0,2.282Zm2.807,3.37H8.964a2.885,2.885,0,1,1-5.769,0m6.12-1.176,1.247-1.664A7.908,7.908,0,0,0,6.08,1.176,7.886,7.886,0,0,0,1.6,2.452L2.846,4.116ZM6.08,9.409a4,4,0,0,1-2.147-.623,3.821,3.821,0,0,0-1.969,3.564v.588H10.2v-.588a3.822,3.822,0,0,0-1.97-3.564,4,4,0,0,1-2.146.623" transform="translate(0.067 0.05)" stroke="#bbb6b3" stroke-width="0.1" fill-rule="evenodd"/>
</svg>
